<?xml version="1.0" standalone="no"?>
<!DOCTYPE svg PUBLIC "-//W3C//DTD SVG 20010904//EN"
 "http://www.w3.org/TR/2001/REC-SVG-20010904/DTD/svg10.dtd">
<svg version="1.0" xmlns="http://www.w3.org/2000/svg"
 width="800.000000pt" height="800.000000pt" viewBox="0 0 800.000000 800.000000"
 preserveAspectRatio="xMidYMid meet">
<metadata>
Created by potrace 1.14, written by Peter Selinger 2001-2017
</metadata>
<g transform="translate(0.000000,800.000000) scale(0.100000,-0.100000)"
fill="#000000" stroke="none">
<path d="M2465 7429 c-192 -127 -572 -375 -842 -551 -271 -177 -493 -324 -493
-328 0 -3 263 -217 585 -475 l585 -469 -22 -22 c-13 -12 -275 -223 -583 -469
-308 -247 -560 -453 -560 -458 0 -5 153 -109 340 -232 187 -122 569 -371 848
-554 l508 -332 595 496 c327 273 594 499 594 503 -1 4 -121 81 -268 171 -147
91 -438 270 -647 399 -209 129 -468 289 -575 355 -107 65 -201 125 -208 131
-10 10 135 104 730 471 992 613 963 594 963 605 0 13 -1172 990 -1187 989 -7
0 -170 -104 -363 -230z"/>
<path d="M4630 7171 c-321 -269 -586 -493 -587 -498 -2 -6 94 -71 214 -146
504 -312 1450 -895 1472 -906 13 -7 19 -17 15 -21 -8 -8 -132 -84 -1104 -685
-604 -373 -612 -378 -603 -385 7 -6 478 -399 1053 -877 74 -61 139 -109 145
-106 5 4 390 254 854 557 l844 550 -44 38 c-24 21 -288 233 -586 470 -298 238
-542 436 -543 440 0 3 262 216 583 473 320 257 583 470 584 473 3 8 -1673
1103 -1696 1108 -10 2 -247 -189 -601 -485z"/>
<path d="M3819 4147 c-371 -309 -952 -792 -971 -805 -17 -12 -44 3 -261 144
-133 87 -248 162 -254 167 -10 7 -13 -30 -13 -179 l0 -189 856 -513 857 -513
846 507 c465 279 852 512 859 518 9 9 12 57 10 195 l-3 183 -237 -156 c-130
-85 -246 -160 -258 -166 -21 -11 -78 35 -1024 822 -104 87 -192 158 -195 158
-3 -1 -99 -78 -212 -173z"/>
<path d="M1150 1181 l0 -671 218 0 c254 0 334 10 419 50 127 59 213 176 264
360 21 76 24 105 24 275 0 168 -3 199 -23 270 -57 197 -164 310 -343 362 -40
11 -120 17 -306 20 l-253 5 0 -671z m435 428 c127 -35 185 -165 185 -417 0
-131 -21 -265 -50 -321 -43 -85 -99 -120 -206 -128 l-74 -6 0 442 0 441 53 0
c28 0 70 -5 92 -11z"/>
<path d="M4515 1838 c-3 -7 -4 -308 -3 -668 l3 -655 80 -3 80 -3 23 61 c24 62
36 73 46 43 9 -26 62 -81 99 -100 50 -27 187 -24 252 5 136 62 201 201 212
452 14 339 -101 539 -310 540 -78 0 -118 -14 -170 -60 l-37 -32 -2 214 -3 213
-133 3 c-100 2 -134 -1 -137 -10z m449 -529 c45 -35 60 -111 61 -299 0 -234
-24 -311 -101 -326 -66 -12 -109 21 -129 101 -11 45 -6 454 6 479 32 63 112
85 163 45z"/>
<path d="M3004 1499 c-165 -52 -253 -221 -254 -486 0 -331 117 -500 362 -520
37 -3 95 0 130 6 208 41 307 203 308 503 0 143 -19 247 -59 324 -35 68 -52 89
-102 127 -88 67 -257 87 -385 46z m204 -184 c41 -30 57 -111 57 -305 0 -255
-24 -325 -115 -325 -77 0 -106 63 -116 250 -7 135 7 288 31 339 25 53 96 73
143 41z"/>
<path d="M5653 1506 c-185 -60 -266 -211 -267 -496 0 -153 12 -226 56 -318 53
-114 141 -176 274 -195 189 -28 344 46 415 196 59 128 75 375 34 531 -21 80
-70 170 -114 208 -68 60 -134 82 -251 85 -69 2 -120 -2 -147 -11z m197 -204
c39 -39 50 -105 50 -295 0 -171 -14 -263 -45 -297 -24 -27 -67 -34 -107 -17
-57 24 -71 71 -76 272 -5 208 7 296 49 337 38 39 90 39 129 0z"/>
<path d="M2559 1482 c-50 -32 -72 -61 -105 -141 l-23 -56 -1 108 0 107 -120 0
-120 0 0 -495 0 -495 135 0 135 0 0 250 c0 142 5 272 11 302 24 118 88 178
189 178 l50 0 0 135 0 135 -53 0 c-41 0 -63 -6 -98 -28z"/>
<path d="M4012 1489 c-27 -13 -57 -42 -82 -77 l-40 -55 0 71 0 72 -125 0 -125
0 0 -660 0 -660 135 0 135 0 0 196 0 196 23 -16 c51 -38 103 -56 163 -56 86 0
150 25 204 79 84 84 119 193 127 391 11 269 -57 449 -193 515 -60 30 -168 31
-222 4z m62 -165 c58 -22 87 -203 69 -425 -15 -170 -37 -208 -121 -209 -102 0
-112 26 -112 302 0 117 5 230 10 250 19 66 93 106 154 82z"/>
<path d="M6265 1338 c47 -90 104 -199 127 -244 l41 -80 -142 -243 c-77 -134
-141 -247 -141 -252 0 -5 51 -9 114 -9 l115 0 81 145 c45 80 84 145 87 145 2
0 36 -65 74 -145 l70 -145 150 0 150 0 -12 23 c-6 12 -65 121 -129 242 -65
121 -126 237 -136 257 l-17 36 113 194 c62 106 120 203 128 216 l14 22 -120 0
-120 0 -62 -110 c-33 -60 -63 -110 -65 -110 -3 0 -28 50 -56 110 l-52 110
-149 0 -149 0 86 -162z"/>
</g>
</svg>
